<svg xmlns="http://www.w3.org/2000/svg" width="28" height="28" viewBox="0 0 28 28">
    <path fill="none" d="M0 0h28v28H0z"/>
    <path d="M18.338 15.108a2.372 2.372 0 0 0 2.085-1.227l4.266-7.734a1.187 1.187 0 0 0-1.037-1.764H6.017L4.9 2H1v2.383h2.383l4.29 9.045-1.609 2.908a2.388 2.388 0 0 0 2.086 3.539h14.3v-2.383H8.15l1.31-2.384zM7.149 6.767h14.478l-3.289 5.958H9.973zm1 14.3a2.383 2.383 0 1 0 2.383 2.383 2.38 2.38 0 0 0-2.382-2.383zm11.916 0a2.383 2.383 0 1 0 2.383 2.383 2.38 2.38 0 0 0-2.382-2.383z" transform="translate(.042 .083)"/>
</svg>
