<svg xmlns="http://www.w3.org/2000/svg" width="28" height="28" viewBox="0 0 28 28">
    <path fill="none" d="M0 0h28v28H0z"/>
    <path fill="#090b17" d="M19.273 3a7.1 7.1 0 0 0-5.361 2.517A7.1 7.1 0 0 0 8.552 3 6.524 6.524 0 0 0 2 9.625c0 4.553 4.05 8.263 10.185 13.9l1.727 1.575 1.727-1.59c6.135-5.625 10.185-9.335 10.185-13.888A6.524 6.524 0 0 0 19.273 3zm-5.242 18.73l-.119.12-.119-.12c-5.67-5.191-9.411-8.624-9.411-12.1a4.094 4.094 0 0 1 4.17-4.221A4.656 4.656 0 0 1 12.8 8.252h2.228a4.627 4.627 0 0 1 4.241-2.843 4.094 4.094 0 0 1 4.169 4.216c.004 3.481-3.738 6.913-9.407 12.105z" transform="translate(.088 .132)"/>
</svg>
